<svg xmlns="http://www.w3.org/2000/svg" viewBox="0 0 21.76 71.57"><defs><style>.cls-1{fill:#8bab3f;}</style></defs><title>Element 2</title><g id="Ebene_2" data-name="Ebene 2"><g id="Graphics"><path class="cls-1" d="M1,21.58c.63.35,2.1,2,3.34,2.48s3,1,3.17,1.11a2.41,2.41,0,0,1,.73.38c.13.15,0,0,.1.2s.1.08.2.36a10.67,10.67,0,0,0,.39,2.15c.05.28-.05.25-.11,1.12A6.72,6.72,0,0,0,8.18,33c-.48,4-.18,4.33,0,4.69a4.55,4.55,0,0,1,.2,1.44c0,.33-.07.58.18.58a10.07,10.07,0,0,1,1.39,0c.44.08.26-.38.36-.33a6.85,6.85,0,0,0,1.06,0,11.2,11.2,0,0,1,1.17,2.84c.46,1.72,1.82,3.16,2.15,4.68s-1.42,3.9-2.23,6-.3,5-.63,7.52c-2.66,2.43-.58,3.14-.58,3.14s-.69,1-1.15,1.78.21,1.46.59,1.85A7.74,7.74,0,0,1,12,70.35c.23,1.29,1.8,1.34,3.22,1.11s1-1.36.51-2.17a7.26,7.26,0,0,1-.74-2.18,8.29,8.29,0,0,0,3.62-.41c1.57-.65.79-1.69.53-1.77-.15-.53-1.44-.3-1.62-.4s-.25-.36-.43-.59-.58-.07-.66-.33-.76-1.26-.86-1.52a14.66,14.66,0,0,1,0-2.05s.73-1.92,1-2.78A46.56,46.56,0,0,0,19.12,52a22.89,22.89,0,0,1,1.12-2.81,13.33,13.33,0,0,0,1.49-3.37c.18-1.14-.38-1.82-.41-3.06s-.07-2.33-.17-3.47c.33-.1-.13-1.32-.38-2.56s-.74-3-.76-3.22a20.76,20.76,0,0,1-.13-3.14,16.89,16.89,0,0,0-.48-3.77c.2.23.57.06,1-.32a2.39,2.39,0,0,0,.77-2c-.23-.67-.23-1.37-.38-1.94s-1-1.15-1-1.15-.54-1.68-.71-2.11a2,2,0,0,0-.48-2.5,2.06,2.06,0,0,0-.32-.87,18.35,18.35,0,0,1-.81-2.45,9.84,9.84,0,0,1,.68.88,8.81,8.81,0,0,1,.81,2.35A6.42,6.42,0,0,0,18.2,14a7.64,7.64,0,0,1-.93-1.79,7.49,7.49,0,0,0,2.26,2.15,9,9,0,0,1-2.41-2.88c.71,1.19,1.39,1.57,1.54,1.58a2,2,0,0,1-.4-.8l.25.1a4.54,4.54,0,0,1-.81-.92l.56.34a2.32,2.32,0,0,1-.82-.9c-.3-.58-.07-1.92,0-3.43A5.37,5.37,0,0,0,17,4.62a2.16,2.16,0,0,1,.4.46c0-.07-.53-.89-.76-1.38A9.06,9.06,0,0,0,15.49.87C14.62-.28,13.68,0,13,.05a3.27,3.27,0,0,0-3.56,3,9.54,9.54,0,0,1-.27,2.78,6.19,6.19,0,0,0,.18,3.21,5.77,5.77,0,0,1-.18-2.62,10.31,10.31,0,0,0,.16,2c.17.8.36,1.53-.22,1.69S7.8,9.63,7.8,9.63a1.27,1.27,0,0,0,.42.59l-.47-.14a2.32,2.32,0,0,0,.51.55.92.92,0,0,0-.74.61A6.34,6.34,0,0,0,4.84,14a11.08,11.08,0,0,1-2.38,2.51A8.45,8.45,0,0,0,0,20.69C0,21.22.36,21.22,1,21.58Zm3.17-1.92a7.09,7.09,0,0,1,1.38-1.44,22.92,22.92,0,0,0,1.94-1.6,12,12,0,0,0,.82,2.11,5.52,5.52,0,0,0,.57.88.7.7,0,0,1,.16.53c0,.05,0,.34.44.89a4.19,4.19,0,0,1,.89,2.81,8,8,0,0,0-1.88-.95A8.37,8.37,0,0,1,5.56,21,7.9,7.9,0,0,0,4.16,19.66Z"/></g></g></svg>