<svg xmlns="http://www.w3.org/2000/svg" viewBox="0 0 25.24 63.87"><defs><style>.cls-1{fill:#6dabdd;}</style></defs><title>Element 1</title><g id="Ebene_2" data-name="Ebene 2"><g id="Graphics"><path class="cls-1" d="M20.93,27.3c.3-.27,3.68-4.06,3.93-5.91,0,0,.53-.6.33-.95s-.2-.18-.3-.55A10.16,10.16,0,0,0,21,13.75c-.35-2.18-1.48-3-3-3.1a11.18,11.18,0,0,0-2.2-1.13,10.65,10.65,0,0,1-2.43-.88c-.3-.22-.28-.15-.3-.3s0-.7,0-1.15a6.08,6.08,0,0,0,0-.63.64.64,0,0,0,.6-.8,5.73,5.73,0,0,1-.05-1.38c0-.42-.45-.2-.45-.2S13,2.73,13,2.1,12.07,0,9.76,0A3.16,3.16,0,0,0,6.58,2.91,8.25,8.25,0,0,0,6.9,4.53c0,.1-.5.25-.32.7a3.39,3.39,0,0,1,.23,1.18c0,.33.65.3.65.3a7,7,0,0,1,.22,1,13,13,0,0,1,.08,1.48s-.3-.1-1.93.92S4.1,11.72,3.65,11.87.79,12.05,1,15.71C.74,16.86-.13,18.36,0,20.09s.5,3.28.55,3.66.1.8.37.72.78,1.86,2.78,2.58a17.89,17.89,0,0,1,2.94,1.3,19.3,19.3,0,0,0-.94,7.41C6,40,6.47,42,7.67,42.33c0,.68,0,1.65.49,2.07s.41,1.57.49,2.29a6.33,6.33,0,0,0,1.16,4.47,14.13,14.13,0,0,1,2.44,5.41c0,.34-.64.51-1.39,1.14s-1.07.95-1.35,1-1,.33-.88.71c-.25.45.3.57.3.57a.79.79,0,0,0,.68.1c.13.25.33.36.7.23a3,3,0,0,0,1-.55c.05-.13,1-.1,1.43-.6a3.2,3.2,0,0,1,1.45-1c.6-.2,1.3-.6.83-1.82A12.67,12.67,0,0,1,14,51,13.21,13.21,0,0,0,12.54,45c-.53-.65-.6-1-.57-1.23a38.74,38.74,0,0,0,1.15-5.16c.47,1.38.82,1.23.82,1.23s-.07,1.78.68,2.28A1.84,1.84,0,0,0,15,43.56c.25.5.08,1,.43,1.25-.25,1.7-.31,3.93.37,5.21.33,1.4.65,3.41,1.15,4a2.53,2.53,0,0,1,.65,1.8c0,.55-.42,1.18-.3,1.73a2.54,2.54,0,0,1,.08,1.38c-.13.45-.28,1,.18,1.25,0,.9.32,1.25.37,2a1.43,1.43,0,0,0,.63,1.07.75.75,0,0,0,.87.68c.83,0,.75-.58.75-.58a.61.61,0,0,0,.71-.15,1.12,1.12,0,0,0,.6-.47.36.36,0,0,0,.37-.4,1,1,0,0,0-.5-1A8.4,8.4,0,0,1,20,58.59a9.94,9.94,0,0,1-.61-2.93c0-.71.53-4.29.53-5.54A17.72,17.72,0,0,1,20,47.76a5.38,5.38,0,0,0-.28-2.68c-.4-.72-1.13-1.15-1.18-1.45a10.38,10.38,0,0,0,.15-1.78,3.6,3.6,0,0,1,0-1.27c0-.23,1.05-1.2.7-6.41a2.67,2.67,0,0,1,.42-.66,1,1,0,0,0,.15-1,34.14,34.14,0,0,1,0-3.78A5,5,0,0,1,20.93,27.3ZM6.43,24.12c0,.13-.8-.73-1.35-1.25a2,2,0,0,1-.68-1.05c0-.1.38-.23.9-1a9.52,9.52,0,0,0,.73.73c.25.2.12.6.27,1.28A3.57,3.57,0,0,1,6.43,24.12Zm13.3.22c-.33.91-.7,1.81-.85,2.28A8.43,8.43,0,0,1,18.13,28a6.57,6.57,0,0,0-1-1.71,2.68,2.68,0,0,1-.52-1.17c.32-.43.1-1.13.27-1.88a12.38,12.38,0,0,0,.3-1.9c0-.23.23-.51.66-1.08a8.3,8.3,0,0,0,.77-1.43c.73,1.08,2.26,1.35,2.28,1.58s.1.4-.3,1.25S20.06,23.45,19.73,24.34Z"/></g></g></svg>